# File created by Blade
# Date/Time:  Thu Jan 15 19:03:44 2015
#---------------------------------------------------------
:version 1.10
:name HOM
:units
  mass 1.0
  length 1.000000
  angle deg
:documentation
     Acclaim Skeleton File
:root
   axis xyz
   order TX TY TZ RX RY RZ
   position 0.000000 0.000000 0.000000
   orientation 0 0 0
:bonedata
   begin
      id 1
      name Spine_dum
      direction 0.000000 1.000000 0.000000
      length 4.354460
      axis 0.0 0.0 0.0 xyz
   end
   begin
      id 2
      name LeftUpLeg_dum
      direction 1.000000 0.000000 0.000000
      length 4.291077
      axis 0.0 0.0 0.0 xyz
   end
   begin
      id 3
      name RightUpLeg_dum
      direction -1.000000 0.000000 0.000000
      length 4.291077
      axis 0.0 0.0 0.0 xyz
   end
   begin
      id 4
      name Spine
      direction 0.000000 1.000000 0.000000
      length 0.000000
      axis 0.0 0.0 0.0 xyz
      dof rx ry rz
   end
   begin
      id 5
      name Spine_dum1
      direction 0.000000 1.000000 0.000000
      length 16.581769
      axis 0.0 0.0 0.0 xyz
   end
   begin
      id 6
      name Spine_dum2
      direction 0.000000 1.000000 0.000000
      length 12.903700
      axis 0.0 0.0 0.0 xyz
   end
   begin
      id 7
      name Spine_dum3
      direction 0.000000 1.000000 0.000000
      length 12.903700
      axis 0.0 0.0 0.0 xyz
   end
   begin
      id 8
      name Head
      direction 0.000000 1.000000 0.000000
      length 4.527550
      axis 0.0 0.0 0.0 xyz
      dof rx ry rz
   end
   begin
      id 9
      name LeftShoulder
      direction 1.000000 0.000000 0.000000
      length 6.942033
      axis 0.0 0.0 -90.0 xyz
      dof rx ry rz
   end
   begin
      id 10
      name LeftArm
      direction 1.000000 0.000000 0.000000
      length 11.010391
      axis 0.0 0.0 -90.0 xyz
      dof rx ry rz
   end
   begin
      id 11
      name LeftForeArm
      direction 1.000000 0.000000 0.000000
      length 8.054994
      axis 0.0 0.0 -90.0 xyz
      dof rz ry rx
   end
   begin
      id 12
      name LeftHand
      direction 0.000000 0.000000 0.000000
      length 0.000000
      axis 0.0 0.0 -90.0 xyz
      dof rx ry rz
   end
   begin
      id 13
      name LeftHand_dum1
      direction 0.000000 0.000000 0.000000
      length 0.000000
      axis 0.0 0.0 -90.0 xyz
   end
   begin
      id 14
      name LeftHand_dum2
      direction 1.000000 0.000000 0.000000
      length 3.937000
      axis 0.0 0.0 -90.0 xyz
   end
   begin
      id 15
      name LeftHandThumb1
      direction 0.000000 0.000000 1.000000
      length 3.937000
      axis 0.0 0.0 -90.0 xyz
      dof rx ry rz
   end
   begin
      id 16
      name RightShoulder
      direction -1.000000 0.000000 0.000000
      length 6.942033
      axis 0.0 0.0 90.0 xyz
      dof rx ry rz
   end
   begin
      id 17
      name RightArm
      direction -1.000000 0.000000 0.000000
      length 11.010391
      axis 0.0 0.0 90.0 xyz
      dof rx ry rz
   end
   begin
      id 18
      name RightForeArm
      direction -1.000000 0.000000 0.000000
      length 8.054994
      axis 0.0 0.0 90.0 xyz
      dof rz ry rx
   end
   begin
      id 19
      name RightHand
      direction 0.000000 0.000000 0.000000
      length 0.000000
      axis 0.0 0.0 90.0 xyz
      dof rx ry rz
   end
   begin
      id 20
      name RightHand_dum1
      direction 0.000000 0.000000 0.000000
      length 0.000000
      axis 0.0 0.0 90.0 xyz
   end
   begin
      id 21
      name RightHand_dum2
      direction -1.000000 0.000000 0.000000
      length 3.937000
      axis 0.0 0.0 90.0 xyz
   end
   begin
      id 22
      name RightHandThumb1
      direction 0.000000 0.000000 1.000000
      length 3.937000
      axis 0.0 0.0 90.0 xyz
      dof rx ry rz
   end
   begin
      id 23
      name LeftUpLeg
      direction 0.000000 -1.000000 0.000000
      length 17.039958
      axis 0.0 0.0 0.0 xyz
      dof rx ry rz
   end
   begin
      id 24
      name LeftLeg
      direction 0.000000 -1.000000 0.000000
      length 16.939743
      axis 0.0 0.0 0.0 xyz
      dof rx ry rz
   end
   begin
      id 25
      name LeftFoot
      direction 0.000000 -0.258819 0.965926
      length 5.235044
      axis 15.0 0.0 0.0 xyz
      dof rx ry rz
   end
   begin
      id 26
      name LeftToeBase
      direction 0.000000 0.000000 1.000000
      length 2.952750
      axis 0.0 0.0 0.0 xyz
      dof rx ry rz
   end
   begin
      id 27
      name RightUpLeg
      direction 0.000000 -1.000000 0.000000
      length 17.039958
      axis 0.0 0.0 0.0 xyz
      dof rx ry rz
   end
   begin
      id 28
      name RightLeg
      direction 0.000000 -1.000000 0.000000
      length 16.939743
      axis 0.0 0.0 0.0 xyz
      dof rx ry rz
   end
   begin
      id 29
      name RightFoot
      direction 0.000000 -0.258819 0.965926
      length 5.235044
      axis 15.0 0.0 0.0 xyz
      dof rx ry rz
   end
   begin
      id 30
      name RightToeBase
      direction 0.000000 0.000000 1.000000
      length 2.952750
      axis 0.0 0.0 0.0 xyz
      dof rx ry rz
   end
:hierarchy
   begin
      root Spine_dum LeftUpLeg_dum RightUpLeg_dum
      Spine_dum Spine
      LeftUpLeg_dum LeftUpLeg
      RightUpLeg_dum RightUpLeg
      Spine Spine_dum1 Spine_dum2 Spine_dum3
      Spine_dum1 Head
      Spine_dum2 LeftShoulder
      Spine_dum3 RightShoulder
      LeftShoulder LeftArm
      LeftArm LeftForeArm
      LeftForeArm LeftHand
      LeftHand LeftHand_dum1 LeftHand_dum2
      LeftHand_dum1 LeftHandThumb1
      RightShoulder RightArm
      RightArm RightForeArm
      RightForeArm RightHand
      RightHand RightHand_dum1 RightHand_dum2
      RightHand_dum1 RightHandThumb1
      LeftUpLeg LeftLeg
      LeftLeg LeftFoot
      LeftFoot LeftToeBase
      RightUpLeg RightLeg
      RightLeg RightFoot
      RightFoot RightToeBase
   end

# File created by Blade
# Date/Time:  Thu Jan 15 19:03:33 2015
# Frame Rate: 120.000 fps
#------------------------------------------------------
:FULLY-SPECIFIED
:DEGREES
1359
root -0.409021 35.538525 -8.703978 -184.778884 1.173422 -180.330323
Spine 3.463317 6.383102 -2.769998
Head 6.243799 -2.412063 10.939984
LeftShoulder -4.650633 15.013163 -0.212732
LeftArm 22.448280 -14.377497 -77.429684
LeftForeArm -0.000000 -1.993786 18.060548
LeftHand 5.706592 -0.000000 5.654129
LeftHandThumb1 -26.253704 33.147579 0.000000
RightShoulder -19.243714 -10.198741 6.495573
RightArm 7.027442 0.602624 76.463723
RightForeArm -0.000000 -31.182178 32.701720
RightHand 0.148377 -0.000000 3.672719
RightHandThumb1 -24.326973 -32.862282 -0.000000
LeftUpLeg 7.339287 15.717317 -8.736629
LeftLeg -2.660145 -0.000000 0.000000
LeftFoot -14.931719 23.401905 -7.796194
LeftToeBase 18.758011 -0.000000 -0.000000
RightUpLeg -59.542997 0.296939 4.987142
RightLeg 90.177041 -0.000000 -0.000000
RightFoot 24.490252 -37.902064 -13.891803
RightToeBase 12.957332 -0.000000 -0.000000
1360
root -0.428377 35.541689 -8.693231 -184.851351 1.171239 -180.195271
Spine 3.535540 6.270377 -2.649369
Head 6.263899 -2.343594 10.914421
LeftShoulder -4.537080 14.884343 -0.115327
LeftArm 22.551051 -14.526408 -77.285838
LeftForeArm -0.000000 -2.118254 18.372443
LeftHand 5.860599 -0.000000 5.873564
LeftHandThumb1 -26.253704 33.147579 0.000000
RightShoulder -19.123257 -10.040606 6.499651
RightArm 7.280084 0.771288 76.273704
RightForeArm -0.000000 -31.461203 32.307693
RightHand 0.350275 0.000000 3.837124
RightHandThumb1 -24.326973 -32.862282 -0.000000
LeftUpLeg 7.438248 15.642161 -8.639900
LeftLeg -2.748593 -0.000000 0.000000
LeftFoot -14.910693 23.553524 -7.697844
LeftToeBase 18.958451 -0.000000 -0.000000
RightUpLeg -60.938560 0.415487 5.410040
RightLeg 91.432196 -0.000000 -0.000000
RightFoot 24.906917 -37.927572 -14.064330
RightToeBase 13.226286 -0.000000 -0.000000
1361
root -0.452558 35.543629 -8.681325 -184.968686 1.219099 -180.085011
Spine 3.674635 6.233886 -2.522989
Head 6.254295 -2.248073 10.873436
LeftShoulder -4.414506 14.741365 -0.025012
LeftArm 22.635608 -14.693542 -77.185370
LeftForeArm -0.000000 -2.222271 18.651807
LeftHand 6.045956 -0.000000 6.236421
LeftHandThumb1 -26.253704 33.147579 0.000000
RightShoulder -19.034521 -9.862758 6.489697
RightArm 7.513300 0.586708 75.967746
RightForeArm -0.000000 -31.452328 31.966447
RightHand 0.292889 0.000000 3.900119
RightHandThumb1 -24.326973 -32.862282 -0.000000
LeftUpLeg 7.576132 15.633546 -8.553205
LeftLeg -2.824276 -0.000000 0.000000
LeftFoot -14.872190 23.650872 -7.588456
LeftToeBase 18.990774 -0.000000 -0.000000
RightUpLeg -62.272598 0.558491 5.802853
RightLeg 92.621766 -0.000000 -0.000000
RightFoot 25.444187 -38.007816 -14.423600
RightToeBase 13.526909 -0.000000 -0.000000
1362
root -0.476597 35.548117 -8.674493 -185.076574 1.218855 -179.966958
Spine 3.789195 6.162818 -2.387353
Head 6.254088 -2.159781 10.816240
LeftShoulder -4.289018 14.655593 0.003136
LeftArm 22.734965 -14.860859 -77.046642
LeftForeArm -0.000000 -2.307881 18.889764
LeftHand 6.213773 0.000000 5.957395
LeftHandThumb1 -26.253704 33.147579 0.000000
RightShoulder -18.970579 -9.719094 6.514196
RightArm 7.758639 0.341934 75.631869
RightForeArm 0.000000 -31.330162 31.636404
RightHand 0.266352 -0.000000 3.865815
RightHandThumb1 -24.326973 -32.862282 -0.000000
LeftUpLeg 7.704944 15.570993 -8.461758
LeftLeg -2.881365 -0.000000 0.000000
LeftFoot -14.852155 23.733577 -7.536419
LeftToeBase 18.985764 -0.000000 -0.000000
RightUpLeg -63.572757 0.681291 6.169636
RightLeg 93.761142 -0.000000 -0.000000
RightFoot 25.931434 -38.134012 -14.664745
RightToeBase 13.795349 -0.000000 -0.000000
1363
root -0.498101 35.552084 -8.669400 -185.172571 1.206671 -179.842353
Spine 3.888085 6.079191 -2.273625
Head 6.244623 -2.127452 10.801739
LeftShoulder -4.200072 14.563656 0.067299
LeftArm 22.797682 -15.034441 -76.997826
LeftForeArm 0.000000 -2.431096 19.134494
LeftHand 6.403456 -0.000000 6.349615
LeftHandThumb1 -26.253704 33.147579 0.000000
RightShoulder -18.898187 -9.520418 6.545163
RightArm 7.950923 0.100796 75.287219
RightForeArm -0.000000 -31.269293 31.250789
RightHand 0.262399 -0.000000 3.860471
RightHandThumb1 -24.326973 -32.862282 -0.000000
LeftUpLeg 7.817930 15.495341 -8.359888
LeftLeg -2.922947 -0.000000 0.000000
LeftFoot -14.821146 23.808447 -7.431932
LeftToeBase 18.967865 -0.000000 -0.000000
RightUpLeg -64.845351 0.816049 6.519041
RightLeg 94.841637 -0.000000 -0.000000
RightFoot 26.487415 -38.168334 -15.052853
RightToeBase 14.149093 -0.000000 -0.000000
1364
root -0.522556 35.557007 -8.664736 -185.242766 1.181824 -179.718551
Spine 3.950528 6.006764 -2.123961
Head 6.277226 -2.067052 10.740427
LeftShoulder -4.116053 14.520920 0.052573
LeftArm 22.906986 -15.199132 -76.903121
LeftForeArm 0.000000 -2.406563 19.344253
LeftHand 6.316922 -0.000000 6.521568
LeftHandThumb1 -26.253704 33.147579 0.000000
RightShoulder -18.829089 -9.433418 6.573746
RightArm 8.217906 0.022788 75.009802
RightForeArm 0.000000 -31.258334 30.886148
RightHand 0.254309 0.000000 3.786422
RightHandThumb1 -24.326973 -32.862282 -0.000000
LeftUpLeg 7.898692 15.371715 -8.278363
LeftLeg -2.958021 -0.000000 0.000000
LeftFoot -14.800747 23.916353 -7.372319
LeftToeBase 18.974919 -0.000000 -0.000000
RightUpLeg -66.108973 0.949451 6.829678
RightLeg 95.864668 -0.000000 -0.000000
RightFoot 27.019560 -38.252572 -15.402434
RightToeBase 14.397564 -0.000000 -0.000000
1365
root -0.547889 35.561247 -8.662506 -185.303930 1.170216 -179.590894
Spine 3.999567 5.930216 -1.969228
Head 6.294386 -1.998848 10.698703
LeftShoulder -4.075975 14.466065 0.020211
LeftArm 22.988955 -15.470623 -76.893649
LeftForeArm -0.000000 -2.235271 19.539576
LeftHand 6.340649 -0.000000 6.388193
LeftHandThumb1 -26.253704 33.147579 0.000000
RightShoulder -18.729526 -9.287138 6.550060
RightArm 8.405303 -0.115044 74.736816
RightForeArm -0.000000 -31.287059 30.504491
RightHand 0.213042 0.000000 3.931176
RightHandThumb1 -24.326973 -32.862282 -0.000000
LeftUpLeg 7.967668 15.275143 -8.200919
LeftLeg -2.985057 -0.000000 0.000000
LeftFoot -14.778437 24.043336 -7.265297
LeftToeBase 18.945566 -0.000000 -0.000000
RightUpLeg -67.334651 1.104281 7.122091
RightLeg 96.831810 -0.000000 -0.000000
RightFoot 27.570537 -38.214999 -15.864722
RightToeBase 14.699667 -0.000000 -0.000000
1366
root -0.574241 35.565573 -8.661650 -185.373481 1.137651 -179.474525
Spine 4.057501 5.861709 -1.826203
Head 6.304077 -1.935019 10.649407
LeftShoulder -4.027620 14.404019 0.030175
LeftArm 22.974910 -15.405334 -76.783530
LeftForeArm 0.000000 -2.517412 19.705952
LeftHand 6.464395 -0.000000 6.541912
LeftHandThumb1 -26.253704 33.147579 0.000000
RightShoulder -18.653194 -9.133508 6.544358
RightArm 8.576891 -0.242960 74.459651
RightForeArm -0.000000 -31.182357 30.145408
RightHand 0.191334 -0.000000 3.882651
RightHandThumb1 -24.326973 -32.862282 -0.000000
LeftUpLeg 8.038465 15.114734 -8.133279
LeftLeg -2.991876 -0.000000 0.000000
LeftFoot -14.779743 24.168471 -7.197263
LeftToeBase 18.972586 -0.000000 -0.000000
RightUpLeg -68.533135 1.271197 7.367181
RightLeg 97.753786 -0.000000 -0.000000
RightFoot 28.044566 -38.219348 -16.071573
RightToeBase 14.903073 -0.000000 -0.000000
1367
root -0.599690 35.569705 -8.663529 -185.441900 1.136732 -179.345408
Spine 4.113318 5.853017 -1.653227
Head 6.288866 -1.908987 10.590258
LeftShoulder -3.962941 14.360559 0.001852
LeftArm 22.976390 -15.462921 -76.720034
LeftForeArm -0.000000 -2.539169 19.844677
LeftHand 6.522744 -0.000000 6.490226
LeftHandThumb1 -26.253704 33.147579 0.000000
RightShoulder -18.596720 -8.996113 6.523996
RightArm 8.740763 -0.317683 74.220101
RightForeArm -0.000000 -31.229979 29.777814
RightHand 0.114452 0.000000 3.964734
RightHandThumb1 -24.326973 -32.862282 -0.000000
LeftUpLeg 8.126879 15.003443 -8.047192
LeftLeg -3.022838 -0.000000 0.000000
LeftFoot -14.766016 24.287204 -7.092030
LeftToeBase 18.988053 -0.000000 -0.000000
RightUpLeg -69.676490 1.471812 7.593966
RightLeg 98.614128 -0.000000 -0.000000
RightFoot 28.538073 -38.090642 -16.369726
RightToeBase 14.960524 -0.000000 -0.000000
1368
root -0.624955 35.572100 -8.664348 -185.489098 1.117262 -179.194987
Spine 4.147079 5.796505 -1.469944
Head 6.298743 -1.883992 10.538389
LeftShoulder -3.958692 14.327512 -0.018184
LeftArm 22.961668 -15.449809 -76.694524
LeftForeArm -0.000000 -2.650037 19.968392
LeftHand 6.565221 -0.000000 6.771446
LeftHandThumb1 -26.253704 33.147579 0.000000
RightShoulder -18.466292 -8.920507 6.505853
RightArm 8.913048 -0.249743 74.020397
RightForeArm -0.000000 -31.248563 29.451883
RightHand 0.157473 -0.000000 4.056488
RightHandThumb1 -24.326973 -32.862282 -0.000000
LeftUpLeg 8.175791 14.872761 -7.954951
LeftLeg -3.023930 -0.000000 0.000000
LeftFoot -14.776365 24.436948 -6.929735
LeftToeBase 19.015343 -0.000000 -0.000000
RightUpLeg -70.801181 1.653690 7.815950
RightLeg 99.403239 -0.000000 -0.000000
RightFoot 29.026797 -38.002192 -16.654015
RightToeBase 15.085267 -0.000000 -0.000000
1369
root -0.655446 35.575266 -8.670316 -185.550444 1.145120 -179.088455
Spine 4.181385 5.817810 -1.308276
Head 6.301480 -1.851325 10.496564
LeftShoulder -3.964166 14.326010 -0.059203
LeftArm 22.997708 -15.583569 -76.772505
LeftForeArm 0.000000 -2.519647 20.011247
LeftHand 6.560992 -0.000000 6.496374
LeftHandThumb1 -26.253704 33.147579 0.000000
RightShoulder -18.371156 -8.800941 6.470824
RightArm 9.011295 -0.277827 73.794692
RightForeArm -0.000000 -31.254893 29.160007
RightHand 0.065852 -0.000000 4.166150
RightHandThumb1 -24.326973 -32.862282 -0.000000
LeftUpLeg 8.257564 14.818660 -7.901664
LeftLeg -3.050707 -0.000000 0.000000
LeftFoot -14.774122 24.543904 -6.834718
LeftToeBase 19.059108 -0.000000 -0.000000
RightUpLeg -71.868579 1.875521 7.972626
RightLeg 100.152850 -0.000000 -0.000000
RightFoot 29.456808 -37.848863 -16.975875
RightToeBase 15.293464 -0.000000 -0.000000
1370
root -0.684194 35.577432 -8.675869 -185.606961 1.148934 -178.960583
Spine 4.214263 5.842133 -1.116517
Head 6.285590 -1.817478 10.450405
LeftShoulder -3.940626 14.282510 -0.117705
LeftArm 22.955742 -15.690178 -76.825659
LeftForeArm 0.000000 -2.394071 20.028748
LeftHand 6.513131 -0.000000 6.346820
LeftHandThumb1 -26.253704 33.147579 0.000000
RightShoulder -18.304510 -8.729874 6.444277
RightArm 9.133586 -0.221692 73.621477
RightForeArm 0.000000 -31.313632 28.912280
RightHand 0.029839 -0.000000 4.198317
RightHandThumb1 -24.326973 -32.862282 -0.000000
LeftUpLeg 8.327996 14.726911 -7.827637
LeftLeg -3.063711 -0.000000 0.000000
LeftFoot -14.784258 24.664661 -6.715656
LeftToeBase 19.122097 -0.000000 -0.000000
RightUpLeg -72.901318 2.110002 8.103637
RightLeg 100.852943 -0.000000 -0.000000
RightFoot 29.849790 -37.662606 -17.122289
RightToeBase 15.275479 -0.000000 -0.000000
1371
root -0.714372 35.580140 -8.684026 -185.675269 1.182844 -178.844577
Spine 4.256602 5.923015 -0.928007
Head 6.265925 -1.825668 10.402740
LeftShoulder -3.911596 14.250703 -0.175745
LeftArm 22.915511 -15.763382 -76.898128
LeftForeArm -0.000000 -2.338681 19.959848
LeftHand 6.547203 0.000000 6.347710
LeftHandThumb1 -26.253704 33.147579 0.000000
RightShoulder -18.234937 -8.653899 6.400001
RightArm 9.242634 -0.208303 73.444939
RightForeArm -0.000000 -31.254395 28.624612
RightHand -0.035956 -0.000000 4.249650
RightHandThumb1 -24.326973 -32.862282 -0.000000
LeftUpLeg 8.400826 14.666882 -7.758476
LeftLeg -3.046853 -0.000000 0.000000
LeftFoot -14.803992 24.775729 -6.617711
LeftToeBase 19.102918 -0.000000 -0.000000
RightUpLeg -73.858532 2.360051 8.205055
RightLeg 101.486898 -0.000000 -0.000000
RightFoot 30.191972 -37.491052 -17.386747
RightToeBase 15.406730 -0.000000 -0.000000
